<?xml version="1.0" encoding="UTF-8"?>
<svg id="Layer_2" data-name="Layer 2" xmlns="http://www.w3.org/2000/svg" xmlns:xlink="http://www.w3.org/1999/xlink" viewBox="0 0 40.02 50.03">
  <defs>
    <style>
      .cls-1 {
        fill: url(#linear-gradient);
      }
    </style>
    <linearGradient id="linear-gradient" x1="-.7" y1="46.07" x2="40.41" y2="4.97" gradientUnits="userSpaceOnUse">
      <stop offset="0" stop-color="#16c0cf"/>
      <stop offset="0" stop-color="#18bccf"/>
      <stop offset=".14" stop-color="#3986d7"/>
      <stop offset=".27" stop-color="#525bdd"/>
      <stop offset=".38" stop-color="#653ce2"/>
      <stop offset=".47" stop-color="#7029e5"/>
      <stop offset=".54" stop-color="#7523e6"/>
      <stop offset=".6" stop-color="#6d2ee4"/>
      <stop offset=".7" stop-color="#5a4edf"/>
      <stop offset=".85" stop-color="#3b82d8"/>
      <stop offset="1" stop-color="#16c0cf"/>
    </linearGradient>
  </defs>
  <g id="Layer_1-2" data-name="Layer 1">
    <path class="cls-1" d="M38.92,49.82c-.05.13-.17.21-.3.21-.03,0-.06,0-.09-.01-.16-.05-.26-.21-.23-.38.02-.09,1.66-9.34-18.59-19.38C9,24.95,2.57,18.72.61,11.74-1.24,5.11,1.69.35,1.82.15c.08-.13.25-.19.4-.13.15.06.23.22.19.37-.03.13-2.64,13.01,19.21,24.33,8.39,4.34,22.43,11.61,17.3,25.1ZM34.84,9.99h-6.2v6.21h6.2v-6.21ZM39.68,4.24h-4.56v4.56h4.56v-4.56ZM25.71,16.2v-4.01h-7.21v4.01h7.21ZM26.08,5.34h-14.97v3.47h14.97v-3.47ZM5.17,41.34h6.21v-6.21h-6.21v6.21ZM.33,47.1h4.56v-4.56H.33v4.56ZM14.3,35.14v4.01h7.21v-4.01h-7.21ZM13.94,46h14.97v-3.47h-14.97v3.47Z"/>
  </g>
</svg>