<?xml version="1.0" encoding="UTF-8"?>
<svg id="Layer_2" data-name="Layer 2" xmlns="http://www.w3.org/2000/svg" viewBox="0 0 205.43 132.51">
  <g id="Layer_1-2" data-name="Layer 1">
    <g>
      <path d="M58.83,132.51s4.28-19.75-30.35-38.67C15.06,86.5-6.03,75.31,1.63,55.17c0,0,2.55,14.1,29.48,28.87,42.59,23.36,27.72,48.47,27.72,48.47ZM32.46,48.47c26.93,14.77,29.48,28.87,29.48,28.87,7.65-20.14-13.43-31.33-26.85-38.67C.47,19.75,4.75,0,4.75,0c0,0-14.87,25.12,27.72,48.47ZM9.95,61.19c4.43-7.83,14.5-11.91,14.5-11.91-5.02-2.88-11.14-7.52-11.14-7.52-5.48,2.82-8.86,8.73-8.86,8.73,1.88,6.98,5.51,10.7,5.51,10.7ZM52.52,70.85c-4.43,7.83-14.5,11.91-14.5,11.91,5.02,2.88,11.14,7.52,11.14,7.52,5.48-2.82,8.86-8.73,8.86-8.73-1.88-6.98-5.51-10.7-5.51-10.7ZM45,64.72c-14.9-12.76-28.06,0-28.06,0,15.58,13.16,28.06,0,28.06,0ZM8.84,91.3H2.23v6.61h6.61v-6.61ZM19.22,103.12h-7.65v7.65h7.65v-7.65ZM9.68,114h-5.24v5.24h5.24v-5.24ZM21.44,93.84h-5.31v5.31h5.31v-5.31ZM34.12,103.12h-9.13v4.43h9.13v-4.43ZM45,114h-20.54v3.63h20.54v-3.63ZM50.6,35.78h6.61v-6.61h-6.61v6.61ZM40.23,23.96h7.65v-7.65h-7.65v7.65ZM49.76,13.09h5.24v-5.24h-5.24v5.24ZM38.01,33.24h5.31v-5.31h-5.31v5.31ZM25.33,23.96h9.13v-4.43h-9.13v4.43ZM14.45,13.09h20.54v-3.63H14.45v3.63Z"/>
      <g>
        <g>
          <path d="M81.22,63.97h6.15v9.53h11.67v-9.53h6.15v25.35h-6.15v-10.92h-11.67v10.92h-6.15v-25.35Z"/>
          <path d="M133.95,78.63h-14.15v5.77h15.73l-.71,4.93h-21.18v-25.35h21.07v4.93h-14.91v4.8h14.15v4.93Z"/>
          <path d="M141.91,63.97h6.15v20.42h14.19l-.81,4.93h-19.53v-25.35Z"/>
          <path d="M173.62,63.97v25.35h-6.15v-25.35h6.15Z"/>
          <path d="M198.32,89.32l-6.47-8.87h-.08l-6.28,8.87h-6.87l9.76-12.96-9.48-12.4h7.26l6.01,8.19h.04s6.05-8.19,6.05-8.19h6.62l-9.48,12.11,10.03,13.24h-7.11Z"/>
        </g>
        <g>
          <path d="M100.02,53.52v-10.03h5.53c1.41,0,2.29.4,2.9,1.06.54.58.8,1.28.8,2.01,0,.86-.35,1.61-.92,2.17-.6.57-1.44.94-2.78.94h-3.81v3.86h-1.72ZM101.74,45.03v3.1h3.81c.43,0,1.03-.03,1.52-.49.29-.28.46-.66.46-1.06s-.15-.74-.41-1.01c-.46-.49-1.08-.54-1.57-.54h-3.81Z"/>
          <path d="M113.07,53.52v-10.03h5.53c1.34,0,2.26.37,2.9,1.06.51.54.8,1.24.8,2.01,0,1.35-.89,2.38-2.21,2.87l2.4,4.09h-1.98l-2.15-3.86h-3.56v3.86h-1.72ZM114.79,45.03v3.1h4.12c.91,0,1.68-.71,1.68-1.57,0-.38-.15-.72-.42-1-.48-.49-1.03-.54-1.57-.54h-3.81Z"/>
          <path d="M131.38,43.18c3.17,0,5.69,2.37,5.69,5.3s-2.52,5.35-5.69,5.35-5.64-2.37-5.64-5.35,2.47-5.3,5.64-5.3ZM131.38,52.3c2.17,0,3.87-1.72,3.87-3.81s-1.71-3.76-3.87-3.76-3.82,1.69-3.82,3.76,1.67,3.81,3.82,3.81Z"/>
          <path d="M147.84,43.49v6.47c0,2.47-1.75,3.87-4.19,3.87s-3.52-1.51-4.03-2.57l1.43-.75c.32.74.97,1.78,2.58,1.78,1.44,0,2.49-.83,2.49-2.34v-6.47h1.72Z"/>
          <path d="M158.22,49.05h-3.86v2.93h6.79v1.54h-8.51v-10.03h8.14v1.54h-6.42v2.49h3.86v1.54Z"/>
          <path d="M174.47,51.74c-1.08,1.08-2.77,2.09-4.95,2.09-3.3,0-5.49-2.38-5.49-5.33s2.2-5.32,5.41-5.32c1.83,0,3.58.72,4.7,1.77l-1.17,1.15c-.89-.85-2.27-1.38-3.5-1.38-2.2,0-3.63,1.72-3.63,3.79s1.46,3.78,3.7,3.78c1.57,0,2.9-.77,3.76-1.69l1.15,1.14Z"/>
          <path d="M177.03,43.49h9.6v1.54h-3.93v8.5h-1.72v-8.5h-3.95v-1.54Z"/>
        </g>
      </g>
    </g>
  </g>
</svg>