<?xml version="1.0" encoding="UTF-8"?>
<svg id="Layer_2" data-name="Layer 2" xmlns="http://www.w3.org/2000/svg" xmlns:xlink="http://www.w3.org/1999/xlink" viewBox="0 0 124.21 46.14">
  <defs>
    <style>
      .cls-1 {
        fill: url(#linear-gradient);
      }
    </style>
    <linearGradient id="linear-gradient" x1="24.72" y1="70.85" x2="99.23" y2="-3.66" gradientUnits="userSpaceOnUse">
      <stop offset="0" stop-color="#16c0cf"/>
      <stop offset="0" stop-color="#18bccf"/>
      <stop offset=".14" stop-color="#3986d7"/>
      <stop offset=".27" stop-color="#525bdd"/>
      <stop offset=".38" stop-color="#653ce2"/>
      <stop offset=".47" stop-color="#7029e5"/>
      <stop offset=".54" stop-color="#7523e6"/>
      <stop offset=".6" stop-color="#6d2ee4"/>
      <stop offset=".7" stop-color="#5a4edf"/>
      <stop offset=".85" stop-color="#3b82d8"/>
      <stop offset="1" stop-color="#16c0cf"/>
    </linearGradient>
  </defs>
  <g id="Layer_1-2" data-name="Layer 1">
    <g>
      <path class="cls-1" d="M0,20.79h6.15v9.53h11.67v-9.53h6.15v25.35h-6.15v-10.92H6.15v10.92H0v-25.35ZM52.74,35.44h-14.15v5.77h15.73l-.71,4.93h-21.18v-25.35h21.07v4.93h-14.91v4.8h14.15v4.93ZM60.69,20.79h6.15v20.42h14.19l-.81,4.93h-19.53v-25.35ZM92.41,20.79v25.35h-6.15v-25.35h6.15ZM117.1,46.14l-6.47-8.87h-.08l-6.28,8.87h-6.87l9.76-12.96-9.48-12.4h7.26l6.01,8.19h.04s6.05-8.19,6.05-8.19h6.62l-9.48,12.11,10.03,13.24h-7.11Z"/>
      <g>
        <path d="M18.8,10.34V.31h5.53c1.41,0,2.29.4,2.9,1.06.54.58.8,1.28.8,2.01,0,.86-.35,1.61-.92,2.17-.6.57-1.44.94-2.78.94h-3.81v3.86h-1.72ZM20.52,1.84v3.1h3.81c.43,0,1.03-.03,1.52-.49.29-.28.46-.66.46-1.06s-.15-.74-.41-1.01c-.46-.49-1.08-.54-1.57-.54h-3.81Z"/>
        <path d="M31.85,10.34V.31h5.53c1.34,0,2.26.37,2.9,1.06.51.54.8,1.24.8,2.01,0,1.35-.89,2.38-2.21,2.87l2.4,4.09h-1.98l-2.15-3.86h-3.56v3.86h-1.72ZM33.57,1.84v3.1h4.12c.91,0,1.68-.71,1.68-1.57,0-.38-.15-.72-.42-1-.48-.49-1.03-.54-1.57-.54h-3.81Z"/>
        <path d="M50.16,0c3.17,0,5.69,2.37,5.69,5.3s-2.52,5.35-5.69,5.35-5.64-2.37-5.64-5.35,2.47-5.3,5.64-5.3ZM50.16,9.11c2.17,0,3.87-1.72,3.87-3.81s-1.71-3.76-3.87-3.76-3.82,1.69-3.82,3.76,1.67,3.81,3.82,3.81Z"/>
        <path d="M66.62.31v6.47c0,2.47-1.75,3.87-4.19,3.87s-3.52-1.51-4.03-2.57l1.43-.75c.32.74.97,1.78,2.58,1.78,1.44,0,2.49-.83,2.49-2.34V.31h1.72Z"/>
        <path d="M77,5.87h-3.86v2.93h6.79v1.54h-8.51V.31h8.14v1.54h-6.42v2.49h3.86v1.54Z"/>
        <path d="M93.25,8.56c-1.08,1.08-2.77,2.09-4.95,2.09-3.3,0-5.49-2.38-5.49-5.33s2.2-5.32,5.41-5.32c1.83,0,3.58.72,4.7,1.77l-1.17,1.15c-.89-.85-2.27-1.38-3.5-1.38-2.2,0-3.63,1.72-3.63,3.79s1.46,3.78,3.7,3.78c1.57,0,2.9-.77,3.76-1.69l1.15,1.14Z"/>
        <path d="M95.81.31h9.6v1.54h-3.93v8.5h-1.72V1.84h-3.95V.31Z"/>
      </g>
    </g>
  </g>
</svg>