<?xml version="1.0" encoding="UTF-8"?>
<svg id="Layer_2" data-name="Layer 2" xmlns="http://www.w3.org/2000/svg" xmlns:xlink="http://www.w3.org/1999/xlink" viewBox="0 0 345.29 132.51">
  <defs>
    <style>
      .cls-1 {
        fill: #fff;
      }

      .cls-2 {
        fill: url(#linear-gradient);
      }
    </style>
    <linearGradient id="linear-gradient" x1="132.47" y1="106.41" x2="213.43" y2="25.44" gradientUnits="userSpaceOnUse">
      <stop offset="0" stop-color="#16c0cf"/>
      <stop offset="0" stop-color="#18bccf"/>
      <stop offset=".14" stop-color="#3986d7"/>
      <stop offset=".27" stop-color="#525bdd"/>
      <stop offset=".38" stop-color="#653ce2"/>
      <stop offset=".47" stop-color="#7029e5"/>
      <stop offset=".54" stop-color="#7523e6"/>
      <stop offset=".6" stop-color="#6d2ee4"/>
      <stop offset=".7" stop-color="#5a4edf"/>
      <stop offset=".85" stop-color="#3b82d8"/>
      <stop offset="1" stop-color="#16c0cf"/>
    </linearGradient>
  </defs>
  <g id="Layer_1-2" data-name="Layer 1">
    <g>
      <path class="cls-2" d="M199.67,132.51s4.28-19.75-30.35-38.67c-13.42-7.34-34.51-18.53-26.85-38.67,0,0,2.55,14.1,29.48,28.87,42.59,23.36,27.72,48.47,27.72,48.47ZM173.3,48.47c26.93,14.77,29.48,28.87,29.48,28.87,7.65-20.14-13.43-31.33-26.85-38.67C141.31,19.75,145.58,0,145.58,0c0,0-14.87,25.12,27.72,48.47ZM150.79,61.19c4.43-7.83,14.5-11.91,14.5-11.91-5.02-2.88-11.14-7.52-11.14-7.52-5.48,2.82-8.86,8.73-8.86,8.73,1.88,6.98,5.51,10.7,5.51,10.7ZM193.35,70.85c-4.43,7.83-14.5,11.91-14.5,11.91,5.02,2.88,11.14,7.52,11.14,7.52,5.48-2.82,8.86-8.73,8.86-8.73-1.88-6.98-5.51-10.7-5.51-10.7ZM185.84,64.72c-14.9-12.76-28.06,0-28.06,0,15.58,13.16,28.06,0,28.06,0ZM149.68,91.3h-6.61v6.61h6.61v-6.61ZM160.06,103.12h-7.65v7.65h7.65v-7.65ZM150.52,114h-5.24v5.24h5.24v-5.24ZM162.28,93.84h-5.31v5.31h5.31v-5.31ZM174.96,103.12h-9.13v4.43h9.13v-4.43ZM185.84,114h-20.54v3.63h20.54v-3.63ZM191.44,35.78h6.61v-6.61h-6.61v6.61ZM181.07,23.96h7.65v-7.65h-7.65v7.65ZM190.6,13.09h5.24v-5.24h-5.24v5.24ZM178.84,33.24h5.31v-5.31h-5.31v5.31ZM166.16,23.96h9.13v-4.43h-9.13v4.43ZM155.29,13.09h20.54v-3.63h-20.54v3.63Z"/>
      <g>
        <path class="cls-1" d="M221.07,53.58h6.15v9.53h11.67v-9.53h6.15v25.35h-6.15v-10.92h-11.67v10.92h-6.15v-25.35Z"/>
        <path class="cls-1" d="M273.81,68.23h-14.15v5.77h15.73l-.71,4.93h-21.18v-25.35h21.07v4.93h-14.91v4.8h14.15v4.93Z"/>
        <path class="cls-1" d="M281.77,53.58h6.15v20.42h14.19l-.81,4.93h-19.53v-25.35Z"/>
        <path class="cls-1" d="M313.48,53.58v25.35h-6.15v-25.35h6.15Z"/>
        <path class="cls-1" d="M338.18,78.93l-6.47-8.87h-.08l-6.28,8.87h-6.87l9.76-12.96-9.48-12.4h7.26l6.01,8.19h.04s6.05-8.19,6.05-8.19h6.62l-9.48,12.11,10.03,13.24h-7.11Z"/>
      </g>
      <g>
        <path class="cls-1" d="M0,74.44v-14.38h7.93c2.02,0,3.28.57,4.16,1.52.77.84,1.15,1.83,1.15,2.89,0,1.23-.51,2.31-1.32,3.11-.86.81-2.07,1.34-3.99,1.34H2.47v5.53H0ZM2.47,62.27v4.45h5.46c.62,0,1.48-.04,2.18-.7.42-.4.66-.95.66-1.52s-.22-1.06-.59-1.45c-.66-.7-1.54-.77-2.25-.77H2.47Z"/>
        <path class="cls-1" d="M18.71,74.44v-14.38h7.93c1.92,0,3.24.53,4.16,1.52.73.77,1.15,1.78,1.15,2.89,0,1.94-1.28,3.41-3.17,4.12l3.43,5.86h-2.84l-3.08-5.53h-5.11v5.53h-2.47ZM21.17,62.27v4.45h5.9c1.3,0,2.4-1.01,2.4-2.25,0-.55-.22-1.04-.6-1.43-.68-.7-1.48-.77-2.25-.77h-5.46Z"/>
        <path class="cls-1" d="M44.95,59.62c4.54,0,8.15,3.39,8.15,7.6s-3.61,7.66-8.15,7.66-8.08-3.39-8.08-7.66,3.55-7.6,8.08-7.6ZM44.95,72.68c3.11,0,5.55-2.47,5.55-5.46s-2.44-5.39-5.55-5.39-5.48,2.42-5.48,5.39,2.4,5.46,5.48,5.46Z"/>
        <path class="cls-1" d="M68.54,60.06v9.27c0,3.55-2.51,5.55-6.01,5.55s-5.04-2.16-5.77-3.68l2.05-1.08c.46,1.06,1.39,2.55,3.7,2.55,2.07,0,3.57-1.19,3.57-3.35v-9.27h2.47Z"/>
        <path class="cls-1" d="M83.42,68.04h-5.53v4.21h9.73v2.2h-12.2v-14.38h11.67v2.2h-9.2v3.57h5.53v2.2Z"/>
        <path class="cls-1" d="M106.71,71.89c-1.54,1.54-3.96,3-7.09,3-4.73,0-7.86-3.41-7.86-7.64s3.15-7.62,7.75-7.62c2.62,0,5.13,1.04,6.74,2.53l-1.67,1.65c-1.28-1.21-3.26-1.98-5.02-1.98-3.15,0-5.2,2.47-5.2,5.44s2.09,5.42,5.31,5.42c2.25,0,4.16-1.1,5.39-2.42l1.65,1.63Z"/>
        <path class="cls-1" d="M110.38,60.06h13.76v2.2h-5.64v12.18h-2.47v-12.18h-5.66v-2.2Z"/>
      </g>
    </g>
  </g>
</svg>